# xmcd
#
# Track frame offsets: 
#        150
#        12764
#        32548
#        50499
#        67211
#        85751
#        103265
#        124922
#        140701
#        158990
#
# Disc length: 2355 seconds
#
# Revision: 18
# Processed by: cddbd v1.5.2PL0 Copyright (c) Steve Scherf et al.
# Submitted via: ExactAudioCopy v1.3
#
DISCID=8a09310a
DTITLE=??? - ???
DYEAR=2007
DGENRE=Pop
TTITLE0=????
TTITLE1=??
TTITLE2=???
TTITLE3=????
TTITLE4=??????
TTITLE5=??
TTITLE6=???????
TTITLE7=?
TTITLE8=???
TTITLE9=?????
EXTD=YEAR: 2007
EXTT0=
EXTT1=
EXTT2=
EXTT3=
EXTT4=
EXTT5=
EXTT6=
EXTT7=
EXTT8=
EXTT9=
PLAYORDER=
